<mxfile host="app.diagrams.net" agent="Mozilla/5.0 (Windows NT 10.0; Win64; x64) AppleWebKit/537.36 (KHTML, like Gecko) Chrome/135.0.0.0 Safari/537.36" version="26.2.14">
  <diagram name="Page-1" id="pKWyEXdleOp2L4oIOfq_">
    <mxGraphModel dx="1097" dy="655" grid="1" gridSize="10" guides="1" tooltips="1" connect="1" arrows="1" fold="1" page="1" pageScale="1" pageWidth="827" pageHeight="1169" math="0" shadow="0">
      <root>
        <mxCell id="0" />
        <mxCell id="1" parent="0" />
        <mxCell id="OwIoKM2c7QkcyIesZ2c4-6" style="edgeStyle=orthogonalEdgeStyle;rounded=0;orthogonalLoop=1;jettySize=auto;html=1;exitX=0.5;exitY=1;exitDx=0;exitDy=0;entryX=0.5;entryY=0;entryDx=0;entryDy=0;" edge="1" parent="1" source="OwIoKM2c7QkcyIesZ2c4-1" target="OwIoKM2c7QkcyIesZ2c4-5">
          <mxGeometry relative="1" as="geometry" />
        </mxCell>
        <mxCell id="OwIoKM2c7QkcyIesZ2c4-1" value="&lt;font style=&quot;font-size: 13px;&quot;&gt;Patient Arrives&lt;/font&gt;" style="rounded=1;whiteSpace=wrap;html=1;fillColor=#bac8d3;strokeColor=#23445d;" vertex="1" parent="1">
          <mxGeometry x="344" y="220" width="160" height="50" as="geometry" />
        </mxCell>
        <mxCell id="OwIoKM2c7QkcyIesZ2c4-7" style="edgeStyle=orthogonalEdgeStyle;rounded=0;orthogonalLoop=1;jettySize=auto;html=1;exitX=0;exitY=0.5;exitDx=0;exitDy=0;entryX=0.5;entryY=0;entryDx=0;entryDy=0;fillColor=#d5e8d4;strokeColor=#82b366;gradientColor=#97d077;" edge="1" parent="1" source="OwIoKM2c7QkcyIesZ2c4-5" target="OwIoKM2c7QkcyIesZ2c4-8">
          <mxGeometry relative="1" as="geometry">
            <mxPoint x="204" y="440" as="targetPoint" />
          </mxGeometry>
        </mxCell>
        <mxCell id="OwIoKM2c7QkcyIesZ2c4-11" value="Yes" style="edgeLabel;html=1;align=center;verticalAlign=middle;resizable=0;points=[];" vertex="1" connectable="0" parent="OwIoKM2c7QkcyIesZ2c4-7">
          <mxGeometry x="-0.2837" y="4" relative="1" as="geometry">
            <mxPoint x="-4" y="-19" as="offset" />
          </mxGeometry>
        </mxCell>
        <mxCell id="OwIoKM2c7QkcyIesZ2c4-14" style="edgeStyle=orthogonalEdgeStyle;rounded=0;orthogonalLoop=1;jettySize=auto;html=1;entryX=0.5;entryY=0;entryDx=0;entryDy=0;fillColor=#fad9d5;strokeColor=#ae4132;" edge="1" parent="1" source="OwIoKM2c7QkcyIesZ2c4-5" target="OwIoKM2c7QkcyIesZ2c4-13">
          <mxGeometry relative="1" as="geometry" />
        </mxCell>
        <mxCell id="OwIoKM2c7QkcyIesZ2c4-15" value="No" style="edgeLabel;html=1;align=center;verticalAlign=middle;resizable=0;points=[];" vertex="1" connectable="0" parent="OwIoKM2c7QkcyIesZ2c4-14">
          <mxGeometry x="-0.1484" y="-3" relative="1" as="geometry">
            <mxPoint x="-1" y="-18" as="offset" />
          </mxGeometry>
        </mxCell>
        <mxCell id="OwIoKM2c7QkcyIesZ2c4-5" value="Is Bed Available?" style="rhombus;whiteSpace=wrap;html=1;fillColor=#bac8d3;strokeColor=#23445d;" vertex="1" parent="1">
          <mxGeometry x="356.5" y="330" width="135" height="130" as="geometry" />
        </mxCell>
        <mxCell id="OwIoKM2c7QkcyIesZ2c4-9" value="&lt;font&gt;Get Treated Base On&amp;nbsp;&lt;/font&gt;&lt;div&gt;&lt;font&gt;&lt;span style=&quot;background-color: rgb(255, 255, 254); white-space-collapse: preserve;&quot;&gt;&lt;font style=&quot;font-size: 11px; color: light-dark(rgb(170, 133, 0), rgb(255, 255, 255));&quot;&gt;Disease and Severity&lt;/font&gt;&lt;/span&gt;&lt;/font&gt;&lt;/div&gt;" style="edgeStyle=orthogonalEdgeStyle;rounded=0;orthogonalLoop=1;jettySize=auto;html=1;entryX=0.5;entryY=0;entryDx=0;entryDy=0;fillColor=#b1ddf0;strokeColor=#10739e;" edge="1" parent="1" source="OwIoKM2c7QkcyIesZ2c4-8" target="OwIoKM2c7QkcyIesZ2c4-10">
          <mxGeometry relative="1" as="geometry">
            <mxPoint x="194" y="630" as="targetPoint" />
            <mxPoint as="offset" />
          </mxGeometry>
        </mxCell>
        <mxCell id="OwIoKM2c7QkcyIesZ2c4-8" value="&lt;font style=&quot;font-size: 13px;&quot;&gt;Assign Random Available Bed&lt;/font&gt;" style="rounded=1;whiteSpace=wrap;html=1;fillColor=#bac8d3;strokeColor=#23445d;" vertex="1" parent="1">
          <mxGeometry x="114" y="450" width="160" height="50" as="geometry" />
        </mxCell>
        <mxCell id="OwIoKM2c7QkcyIesZ2c4-27" style="edgeStyle=orthogonalEdgeStyle;rounded=0;orthogonalLoop=1;jettySize=auto;html=1;exitX=0.5;exitY=1;exitDx=0;exitDy=0;entryX=0;entryY=0.5;entryDx=0;entryDy=0;fillColor=#b1ddf0;strokeColor=#10739e;" edge="1" parent="1" source="OwIoKM2c7QkcyIesZ2c4-10" target="OwIoKM2c7QkcyIesZ2c4-26">
          <mxGeometry relative="1" as="geometry">
            <Array as="points">
              <mxPoint x="194" y="820" />
            </Array>
          </mxGeometry>
        </mxCell>
        <mxCell id="OwIoKM2c7QkcyIesZ2c4-10" value="&lt;font style=&quot;font-size: 13px;&quot;&gt;Discharge &amp;amp; Free Bed&lt;/font&gt;" style="rounded=1;whiteSpace=wrap;html=1;fillColor=#bac8d3;strokeColor=#23445d;" vertex="1" parent="1">
          <mxGeometry x="114" y="640" width="160" height="50" as="geometry" />
        </mxCell>
        <mxCell id="OwIoKM2c7QkcyIesZ2c4-21" style="edgeStyle=orthogonalEdgeStyle;rounded=0;orthogonalLoop=1;jettySize=auto;html=1;exitX=0.5;exitY=1;exitDx=0;exitDy=0;entryX=0.5;entryY=0;entryDx=0;entryDy=0;fillColor=#b1ddf0;strokeColor=#10739e;" edge="1" parent="1" source="OwIoKM2c7QkcyIesZ2c4-13" target="OwIoKM2c7QkcyIesZ2c4-18">
          <mxGeometry relative="1" as="geometry" />
        </mxCell>
        <mxCell id="OwIoKM2c7QkcyIesZ2c4-13" value="&lt;font style=&quot;font-size: 13px;&quot;&gt;Enter the Queue&lt;/font&gt;" style="rounded=1;whiteSpace=wrap;html=1;fillColor=#bac8d3;strokeColor=#23445d;" vertex="1" parent="1">
          <mxGeometry x="554" y="450" width="160" height="50" as="geometry" />
        </mxCell>
        <mxCell id="OwIoKM2c7QkcyIesZ2c4-22" value="Yes" style="edgeStyle=orthogonalEdgeStyle;rounded=0;orthogonalLoop=1;jettySize=auto;html=1;exitX=0;exitY=0.5;exitDx=0;exitDy=0;entryX=1;entryY=0.5;entryDx=0;entryDy=0;fillColor=#d5e8d4;gradientColor=#97d077;strokeColor=#82b366;" edge="1" parent="1" source="OwIoKM2c7QkcyIesZ2c4-18" target="OwIoKM2c7QkcyIesZ2c4-8">
          <mxGeometry x="0.0551" y="-12" relative="1" as="geometry">
            <mxPoint as="offset" />
          </mxGeometry>
        </mxCell>
        <mxCell id="OwIoKM2c7QkcyIesZ2c4-25" value="" style="edgeStyle=orthogonalEdgeStyle;rounded=0;orthogonalLoop=1;jettySize=auto;html=1;fillColor=#fad9d5;strokeColor=#ae4132;" edge="1" parent="1" source="OwIoKM2c7QkcyIesZ2c4-18" target="OwIoKM2c7QkcyIesZ2c4-24">
          <mxGeometry relative="1" as="geometry" />
        </mxCell>
        <mxCell id="OwIoKM2c7QkcyIesZ2c4-29" value="No" style="edgeLabel;html=1;align=center;verticalAlign=middle;resizable=0;points=[];" vertex="1" connectable="0" parent="OwIoKM2c7QkcyIesZ2c4-25">
          <mxGeometry x="0.1509" relative="1" as="geometry">
            <mxPoint x="1" y="-10" as="offset" />
          </mxGeometry>
        </mxCell>
        <mxCell id="OwIoKM2c7QkcyIesZ2c4-18" value="&lt;font style=&quot;font-size: 13px;&quot;&gt;Did&amp;nbsp;&lt;/font&gt;&lt;span style=&quot;font-size: 13px; background-color: transparent; color: light-dark(rgb(0, 0, 0), rgb(255, 255, 255));&quot;&gt;Wait&amp;nbsp;&lt;/span&gt;&lt;div&gt;&lt;span style=&quot;font-size: 13px; background-color: transparent; color: light-dark(rgb(0, 0, 0), rgb(255, 255, 255));&quot;&gt;&amp;amp; Was&amp;nbsp;&lt;/span&gt;&lt;div&gt;&lt;div&gt;&lt;font style=&quot;font-size: 13px;&quot;&gt;Admitted?&lt;/font&gt;&lt;/div&gt;&lt;/div&gt;&lt;/div&gt;" style="rhombus;whiteSpace=wrap;html=1;fillColor=#bac8d3;strokeColor=#23445d;" vertex="1" parent="1">
          <mxGeometry x="567.13" y="570" width="133.75" height="120" as="geometry" />
        </mxCell>
        <mxCell id="OwIoKM2c7QkcyIesZ2c4-28" style="edgeStyle=orthogonalEdgeStyle;rounded=0;orthogonalLoop=1;jettySize=auto;html=1;exitX=0.5;exitY=1;exitDx=0;exitDy=0;entryX=1;entryY=0.5;entryDx=0;entryDy=0;fillColor=#b1ddf0;strokeColor=#10739e;" edge="1" parent="1" source="OwIoKM2c7QkcyIesZ2c4-24" target="OwIoKM2c7QkcyIesZ2c4-26">
          <mxGeometry relative="1" as="geometry" />
        </mxCell>
        <mxCell id="OwIoKM2c7QkcyIesZ2c4-24" value="&lt;font style=&quot;font-size: 13px;&quot;&gt;Attribute A Rejection Reason&lt;/font&gt;" style="rounded=1;whiteSpace=wrap;html=1;fillColor=#bac8d3;strokeColor=#23445d;" vertex="1" parent="1">
          <mxGeometry x="418" y="730" width="160" height="50" as="geometry" />
        </mxCell>
        <mxCell id="OwIoKM2c7QkcyIesZ2c4-26" value="END" style="ellipse;shape=doubleEllipse;whiteSpace=wrap;html=1;fillColor=#bac8d3;strokeColor=#23445d;" vertex="1" parent="1">
          <mxGeometry x="294" y="790" width="100" height="60" as="geometry" />
        </mxCell>
      </root>
    </mxGraphModel>
  </diagram>
</mxfile>
